<svg width="119" height="133" xmlns="http://www.w3.org/2000/svg" xmlns:xlink="http://www.w3.org/1999/xlink" xml:space="preserve" overflow="hidden"><g transform="translate(-1292 -751)"><g><path d="M1293 785C1293 778.373 1298.6 773 1305.5 773 1312.4 773 1318 778.373 1318 785 1318 791.628 1312.4 797 1305.5 797 1298.6 797 1293 791.628 1293 785Z" fill="#00A735" fill-rule="evenodd" fill-opacity="1"/><path d="M1385 871C1385 864.373 1390.37 859 1397 859 1403.63 859 1409 864.373 1409 871 1409 877.628 1403.63 883 1397 883 1390.37 883 1385 877.628 1385 871Z" fill="#FF6566" fill-rule="evenodd" fill-opacity="1"/><path d="M1364 804C1364 797.373 1369.37 792 1376 792 1382.63 792 1388 797.373 1388 804 1388 810.627 1382.63 816 1376 816 1369.37 816 1364 810.627 1364 804Z" fill="#648FFF" fill-rule="evenodd" fill-opacity="1"/><path d="M1328 765C1328 758.373 1333.6 753 1340.5 753 1347.4 753 1353 758.373 1353 765 1353 771.627 1347.4 777 1340.5 777 1333.6 777 1328 771.627 1328 765Z" fill="#FDB001" fill-rule="evenodd" fill-opacity="1"/></g></g></svg>